<?xml version="1.0" encoding="iso-8859-1"?>
<!-- Generator: Adobe Illustrator 16.0.0, SVG Export Plug-In . SVG Version: 6.00 Build 0)  -->
<!DOCTYPE svg PUBLIC "-//W3C//DTD SVG 1.1//EN" "http://www.w3.org/Graphics/SVG/1.1/DTD/svg11.dtd">
<svg version="1.1" id="Capa_1" xmlns="http://www.w3.org/2000/svg" xmlns:xlink="http://www.w3.org/1999/xlink" x="0px" y="0px"
	 width="959.045px" height="959.045px" viewBox="0 0 959.045 959.045" style="enable-background:new 0 0 959.045 959.045;"
	 xml:space="preserve">
<g>
	<g>
		<path d="M797.269,280.483V172.1L690.648,0H110.087L0.29,171.856v108.627c0,37.226,16.492,70.669,42.55,93.417v362.524h184.318
			V509.624h116.439v226.802h132.404c24.48,90.074,106.939,156.532,204.664,156.577h0.1c45.649,0,89.096-14.331,125.216-40.849
			l106.791,106.891l45.982-45.94L851.964,806.214c26.572-36.124,40.943-79.595,40.964-125.277
			c0.026-56.671-22.018-109.961-62.071-150.053c-21.943-21.964-47.859-38.512-76.139-49.003V373.901
			C780.777,351.152,797.269,317.709,797.269,280.483z M227.995,65.001l-44.711,116.128v67.655v31.699
			c0,12.348-3.82,23.816-10.33,33.301c-10.642,15.503-28.484,25.696-48.667,25.696c-5.708,0-11.223-0.831-16.447-2.351
			c-24.55-7.14-42.55-29.823-42.55-56.646v-31.699v-57.936L145.692,65L227.995,65.001L227.995,65.001z M366.279,65.001v183.783
			v31.699c0,12.348-3.82,23.816-10.33,33.301c-10.643,15.503-28.484,25.696-48.667,25.696c-20.183,0-38.026-10.193-48.668-25.696
			c-6.51-9.484-10.33-20.953-10.33-33.301v-31.699v-55.575l49.363-128.208H366.279z M499.911,65.001l49.362,128.208v55.575v31.699
			c0,12.348-3.82,23.816-10.33,33.301c-10.643,15.503-28.484,25.696-48.667,25.696c-20.184,0-38.026-10.193-48.667-25.696
			c-6.511-9.484-10.33-20.953-10.33-33.301v-31.699V65.001H499.911z M654.454,65.001l77.814,125.604v58.18v31.699
			c0,26.823-18,49.506-42.551,56.646c-5.225,1.52-10.739,2.351-16.447,2.351c-20.185,0-38.026-10.193-48.667-25.696
			c-6.511-9.484-10.33-20.953-10.33-33.301v-31.7v-67.655l-44.71-116.128H654.454z M680.695,828.003
			c-39.31-0.019-76.258-15.343-104.041-43.151c-14.074-14.087-24.936-30.525-32.232-48.426
			c-7.107-17.437-10.833-36.26-10.824-55.656c0.001-3.14,0.113-6.252,0.311-9.344c4.872-76.771,68.887-137.754,146.924-137.754
			c2.979,0.001,5.939,0.103,8.887,0.277c23.165,1.382,45.31,8.111,65,19.596c10.88,6.347,21.017,14.133,30.154,23.279
			c27.783,27.809,43.074,64.771,43.056,104.082c-0.013,28.827-8.367,55.74-22.765,78.464c-11.727,18.507-27.465,34.23-45.983,45.94
			c-22.718,14.363-49.611,22.691-78.415,22.691v32.499L680.695,828.003z M689.719,468.874c-2.976-0.124-5.96-0.201-8.957-0.202
			c-56.648,0-109.915,22.058-149.983,62.106c-37.866,37.848-59.657,87.491-61.963,140.646h-60.217V444.624H162.159v226.802H107.84
			V403.387c5.383,0.717,10.872,1.094,16.447,1.094c36.189,0,68.809-15.585,91.497-40.396c22.688,24.811,55.309,40.396,91.498,40.396
			c36.188,0,68.809-15.585,91.497-40.396c22.688,24.811,55.308,40.396,91.497,40.396c36.188,0,68.809-15.585,91.497-40.396
			c22.688,24.811,55.308,40.396,91.497,40.396c5.575,0,11.064-0.377,16.447-1.094L689.719,468.874L689.719,468.874z"/>
		<path d="M738.873,690.838h15.846h49.154c0-41.593-19.18-78.785-49.154-103.213c-18.282-14.899-40.582-25.045-65-28.542
			c-6.193-0.887-12.52-1.354-18.955-1.354v65c6.578,0,12.934,0.956,18.955,2.704C718.077,633.664,738.873,659.86,738.873,690.838z"
			/>
	</g>
</g>
<g>
</g>
<g>
</g>
<g>
</g>
<g>
</g>
<g>
</g>
<g>
</g>
<g>
</g>
<g>
</g>
<g>
</g>
<g>
</g>
<g>
</g>
<g>
</g>
<g>
</g>
<g>
</g>
<g>
</g>
</svg>
